<?xml version="1.0" encoding="UTF-8"?>
<svg width="752pt" height="752pt" version="1.1" viewBox="0 0 752 752" xmlns="http://www.w3.org/2000/svg">
 <g>
  <path d="m496.21 502.48c-27.145 0-49.234 22.086-49.234 49.234 0 27.145 22.086 49.234 49.234 49.234 27.152 0 49.234-22.082 49.234-49.234 0-27.148-22.09-49.234-49.234-49.234zm0 70.055c-11.48 0-20.82-9.3398-20.82-20.82s9.3398-20.82 20.82-20.82c11.48 0 20.82 9.3438 20.82 20.82s-9.3398 20.82-20.82 20.82z"/>
  <path d="m364.87 502.48c-27.145 0-49.234 22.086-49.234 49.234 0 27.145 22.09 49.234 49.234 49.234 27.145 0 49.234-22.082 49.234-49.234 0-27.148-22.082-49.234-49.234-49.234zm0 70.055c-11.48 0-20.82-9.3398-20.82-20.82s9.3398-20.82 20.82-20.82c11.48 0 20.82 9.3438 20.82 20.82s-9.3398 20.82-20.82 20.82z"/>
  <path d="m572.31 291.03c-2.6992-3.2539-6.7031-5.0078-10.934-5.0078h-0.003906-10.145v-47.355c0-7.8477-6.3594-14.207-14.207-14.207h-33.152v-28.414c0-7.8477-6.3594-14.207-14.207-14.207l-142.07-0.003907c-7.8477 0-14.207 6.3594-14.207 14.207v89.98h-28.426-0.17969-11.043l-14.613-60.105c-1.5508-6.3711-7.25-10.93-13.805-10.93h-0.019531l-74.262 0.11719c-7.8477 0.007813-14.199 6.3945-14.188 14.242 0.007812 7.8477 6.3711 14.055 14.207 14.055h0.019531l63.078 0.019531 57.246 235.43c1.5547 6.375 7.2578 10.816 13.805 10.816h0.019531l203.15-0.23828c6.8242-0.007813 12.68-4.8164 13.941-11.523l33.027-175.24c0.78125-4.1562-0.32813-8.3789-3.0273-11.633zm-49.496-5.0078h-61.566v-33.152h61.566zm-161.02-75.77h113.66v14.207h-28.414c-7.8477 0-14.207 6.3594-14.207 14.207v47.348l-71.039-0.003907zm154.77 250.91-180.2 0.22656-35.746-146.95h4.3477 0.003906 18.938v-0.015625l211.38-0.16016c0.57422 0.070312 1.1406 0.26562 1.7344 0.26562 0.60156 0 1.1797-0.089844 1.7617-0.089844h5.4609z"/>
 </g>
</svg>
