<?xml version="1.0" encoding="UTF-8"?>
<svg width="752pt" height="752pt" version="1.1" viewBox="0 0 752 752" xmlns="http://www.w3.org/2000/svg">
 <g>
  <path d="m567.73 267.49c-2.6953-3.2617-6.7109-5.1445-10.938-5.1445h-267.61l-14.547-60.168c-1.543-6.3828-7.25-10.871-13.809-10.871h-74.262c-7.8477 0-14.207 6.3594-14.207 14.207 0 7.8477 6.3594 14.207 14.207 14.207h63.078l56.918 235.39c1.5391 6.3789 7.2461 10.867 13.809 10.867h203.15c6.8242 0 12.688-4.8477 13.957-11.555l33.273-175.23c0.78906-4.1562-0.3125-8.4492-3.0195-11.711zm-55.98 170.08h-180.2l-35.5-146.81h243.58z"/>
  <path d="m418.62 409.15c7.8477 0 14.207-6.3594 14.207-14.207v-66.301c0-7.8477-6.3594-14.207-14.207-14.207s-14.207 6.3594-14.207 14.207v66.301c0 7.8477 6.3594 14.207 14.207 14.207z"/>
  <path d="m475.45 409.15c7.8477 0 14.207-6.3594 14.207-14.207v-66.301c0-7.8477-6.3594-14.207-14.207-14.207s-14.207 6.3594-14.207 14.207v66.301c0 7.8477 6.3594 14.207 14.207 14.207z"/>
  <path d="m361.79 409.15c7.8477 0 14.207-6.3594 14.207-14.207v-66.301c0-7.8477-6.3594-14.207-14.207-14.207-7.8477 0-14.207 6.3594-14.207 14.207v66.301c0 7.8477 6.3594 14.207 14.207 14.207z"/>
  <path d="m486.74 478.8c-27.145 0-49.234 22.086-49.234 49.234 0.003907 27.145 22.086 49.234 49.234 49.234 27.152 0 49.234-22.082 49.234-49.234 0-27.148-22.086-49.234-49.234-49.234zm0 70.055c-11.48 0-20.82-9.3398-20.82-20.82 0-11.48 9.3398-20.82 20.82-20.82 11.48 0 20.82 9.3438 20.82 20.82 0 11.477-9.3398 20.82-20.82 20.82z"/>
  <path d="m355.39 478.8c-27.145 0-49.234 22.086-49.234 49.234 0.003906 27.145 22.09 49.234 49.234 49.234s49.234-22.082 49.234-49.234c0-27.148-22.082-49.234-49.234-49.234zm0 70.055c-11.48 0-20.82-9.3398-20.82-20.82 0-11.48 9.3398-20.82 20.82-20.82s20.82 9.3438 20.82 20.82c0 11.477-9.3398 20.82-20.82 20.82z"/>
 </g>
</svg>
